<svg width="16" height="17" viewBox="0 0 16 17" fill="none" xmlns="http://www.w3.org/2000/svg">
<path d="M6.66667 6.19987C6.66667 6.02306 6.59643 5.85349 6.4714 5.72847C6.34638 5.60344 6.17681 5.5332 6 5.5332H4.66667C3.95942 5.5332 3.28115 5.81415 2.78105 6.31425C2.28095 6.81435 2 7.49263 2 8.19987V8.19987C2 8.90711 2.28095 9.58539 2.78105 10.0855C3.28115 10.5856 3.95942 10.8665 4.66667 10.8665H6C6.17681 10.8665 6.34638 10.7963 6.4714 10.6713C6.59643 10.5463 6.66667 10.3767 6.66667 10.1999" stroke="currentColor" stroke-width="1.33333" stroke-linecap="round" stroke-linejoin="round"/>
<path d="M9.33325 10.1999C9.33325 10.3767 9.40349 10.5463 9.52851 10.6713C9.65354 10.7963 9.82311 10.8665 9.99992 10.8665H11.3333C12.0405 10.8665 12.7188 10.5856 13.2189 10.0855C13.719 9.58539 13.9999 8.90711 13.9999 8.19987C13.9999 7.49263 13.719 6.81435 13.2189 6.31425C12.7188 5.81415 12.0405 5.5332 11.3333 5.5332H9.99992C9.82311 5.5332 9.65354 5.60344 9.52851 5.72847C9.40349 5.85349 9.33325 6.02306 9.33325 6.19987" stroke="currentColor" stroke-width="1.33333" stroke-linecap="round" stroke-linejoin="round"/>
<path d="M5.33325 8.19995H10.6666" stroke="currentColor" stroke-width="1.33333" stroke-linecap="round" stroke-linejoin="round"/>
</svg>
