<svg width="16" height="17" viewBox="0 0 16 17" fill="none" xmlns="http://www.w3.org/2000/svg">
<path d="M6.66667 6.60002C6.66667 6.42321 6.59643 6.25364 6.4714 6.12861C6.34638 6.00359 6.17681 5.93335 6 5.93335H2.66667C2.48986 5.93335 2.32029 6.00359 2.19526 6.12861C2.07024 6.25364 2 6.42321 2 6.60002V10.6C2 10.7768 2.07024 10.9464 2.19526 11.0714C2.32029 11.1964 2.48986 11.2667 2.66667 11.2667H6C6.17681 11.2667 6.34638 11.1964 6.4714 11.0714C6.59643 10.9464 6.66667 10.7768 6.66667 10.6" stroke="currentColor" stroke-width="1.33333" stroke-linecap="round" stroke-linejoin="round"/>
<path d="M9.3335 10.6C9.3335 10.7768 9.40373 10.9464 9.52876 11.0714C9.65378 11.1964 9.82335 11.2667 10.0002 11.2667H13.3335C13.5103 11.2667 13.6799 11.1964 13.8049 11.0714C13.9299 10.9464 14.0002 10.7768 14.0002 10.6V6.60002C14.0002 6.42321 13.9299 6.25364 13.8049 6.12861C13.6799 6.00359 13.5103 5.93335 13.3335 5.93335H10.0002C9.82335 5.93335 9.65378 6.00359 9.52876 6.12861C9.40373 6.25364 9.3335 6.42321 9.3335 6.60002" stroke="currentColor" stroke-width="1.33333" stroke-linecap="round" stroke-linejoin="round"/>
<path d="M5.3335 8.6001H10.6668" stroke="currentColor" stroke-width="1.33333" stroke-linecap="round" stroke-linejoin="round"/>
</svg>
