<svg width="16" height="16" viewBox="0 0 16 16" fill="none" xmlns="http://www.w3.org/2000/svg">
<rect width="16" height="16" rx="2" fill="currentColor"/>
<path fill-rule="evenodd" clip-rule="evenodd" d="M11.9024 4.63237C12.022 4.50701 12.1595 4.44434 12.315 4.44434C12.4705 4.44434 12.608 4.50701 12.7276 4.63237C12.8353 4.74519 12.8891 4.88622 12.8891 5.05545C12.8891 5.22468 12.8353 5.3657 12.7276 5.47852L7.0045 11.5144C6.99254 11.527 6.98058 11.5395 6.96862 11.552C6.95666 11.5646 6.9447 11.5771 6.93273 11.5896C6.82509 11.715 6.69053 11.7777 6.52907 11.7777C6.3676 11.7777 6.23304 11.715 6.1254 11.5896L3.2728 8.61869C3.16515 8.50587 3.11133 8.36485 3.11133 8.19562C3.11133 8.02639 3.16515 7.88536 3.2728 7.77254C3.3924 7.64718 3.52995 7.58451 3.68544 7.58451C3.84092 7.58451 3.97847 7.64718 4.09808 7.77254L6.52009 10.311L11.9024 4.63237Z" fill="white"/>
</svg>
