<svg width="24" height="24" viewBox="0 0 24 24" fill="none" xmlns="http://www.w3.org/2000/svg">
<path fill-rule="evenodd" clip-rule="evenodd" d="M7.5 0H6V1.875H1.5C0.675 1.875 0 2.55 0 3.375V22.5C0 23.325 0.675 24 1.5 24H22.5C23.325 24 24 23.325 24 22.5V3.375C24 2.55 23.325 1.875 22.5 1.875H18V0H16.5V1.875H7.5V0ZM16.5 5.25V3.375H7.5V5.25H6V3.375H1.5V7.5H22.5V3.375H18V5.25H16.5ZM22.5 9H1.5V22.5H22.5V9ZM16.5 12H20.25V13.5H16.5V12ZM20.25 17.625H16.5V19.125H20.25V17.625ZM10.125 12H13.875V13.5H10.125V12ZM13.875 17.625H10.125V19.125H13.875V17.625ZM3.75 12H7.5V13.5H3.75V12ZM7.5 17.625H3.75V19.125H7.5V17.625Z" fill="currentColor"/>
</svg>
