<svg width="16" height="16" viewBox="0 0 16 16" fill="none" xmlns="http://www.w3.org/2000/svg">
<path d="M6 5.33333V2.66667C6 2.48986 6.07024 2.32029 6.19526 2.19526C6.32029 2.07024 6.48986 2 6.66667 2H13.3333C13.5101 2 13.6797 2.07024 13.8047 2.19526C13.9298 2.32029 14 2.48986 14 2.66667V13.3333C14 13.5101 13.9298 13.6797 13.8047 13.8047C13.6797 13.9298 13.5101 14 13.3333 14H6.66667C6.48986 14 6.32029 13.9298 6.19526 13.8047C6.07024 13.6797 6 13.5101 6 13.3333V10.6667" stroke="currentColor" stroke-width="1.33333" stroke-linecap="round" stroke-linejoin="round"/>
<path d="M8.66667 10.6666L11.3333 7.99992L8.66667 5.33325M2 7.99992H11.3333H2Z" stroke="currentColor" stroke-width="1.33333" stroke-linecap="round" stroke-linejoin="round"/>
</svg>
