<svg width="12" height="14" viewBox="0 0 12 14" fill="none" xmlns="http://www.w3.org/2000/svg">
<path d="M0.966666 2.10667L4.66667 6.33333V13L7.33333 11.6667V6.33333L11.0333 2.10667C11.1179 2.01042 11.1729 1.89184 11.1918 1.76513C11.2108 1.63841 11.1928 1.50893 11.14 1.39218C11.0873 1.27542 11.002 1.17634 10.8944 1.10679C10.7868 1.03724 10.6615 1.00016 10.5333 1H1.46667C1.33855 1.00016 1.21319 1.03724 1.1056 1.10679C0.997999 1.17634 0.912724 1.27542 0.859973 1.39218C0.807223 1.50893 0.789232 1.63841 0.808154 1.76513C0.827075 1.89184 0.882108 2.01042 0.966666 2.10667V2.10667Z" stroke="currentColor" stroke-width="1.33333" stroke-linecap="round" stroke-linejoin="round"/>
</svg>
