<svg width="16" height="16" viewBox="0 0 16 16" fill="none" xmlns="http://www.w3.org/2000/svg">
<path d="M8 14C11.3137 14 14 11.3137 14 8C14 4.68629 11.3137 2 8 2C4.68629 2 2 4.68629 2 8C2 11.3137 4.68629 14 8 14Z" stroke="currentColor" stroke-width="1.33333" stroke-linecap="round" stroke-linejoin="round"/>
<path d="M7.33317 8.00008C7.33317 8.26379 7.25497 8.52158 7.10846 8.74084C6.96196 8.96011 6.75372 9.131 6.51008 9.23192C6.26645 9.33284 5.99836 9.35924 5.73972 9.3078C5.48108 9.25635 5.2435 9.12936 5.05703 8.94289C4.87056 8.75642 4.74357 8.51884 4.69212 8.2602C4.64068 8.00156 4.66708 7.73347 4.768 7.48984C4.86892 7.2462 5.03981 7.03796 5.25908 6.89146C5.47834 6.74495 5.73613 6.66675 5.99984 6.66675C6.35346 6.66675 6.6926 6.80722 6.94265 7.05727C7.1927 7.30732 7.33317 7.64646 7.33317 8.00008ZM10.9998 8.66675C10.9339 8.66675 10.8695 8.6863 10.8146 8.72292C10.7598 8.75955 10.7171 8.81161 10.6919 8.87252C10.6666 8.93343 10.66 9.00045 10.6729 9.06511C10.6858 9.12977 10.7175 9.18917 10.7641 9.23578C10.8108 9.2824 10.8701 9.31415 10.9348 9.32701C10.9995 9.33987 11.0665 9.33327 11.1274 9.30804C11.1883 9.28281 11.2404 9.24009 11.277 9.18527C11.3136 9.13046 11.3332 9.06601 11.3332 9.00008C11.3332 8.91168 11.2981 8.82689 11.2355 8.76438C11.173 8.70187 11.0882 8.66675 10.9998 8.66675Z" stroke="currentColor" stroke-width="1.33333" stroke-linecap="round" stroke-linejoin="round"/>
</svg>
