<svg width="16" height="17" viewBox="0 0 16 17" fill="none" xmlns="http://www.w3.org/2000/svg">
<path d="M13.3332 8.39998V12.4C13.3332 12.7536 13.1927 13.0927 12.9426 13.3428C12.6926 13.5928 12.3535 13.7333 11.9998 13.7333H3.99984C3.64622 13.7333 3.30708 13.5928 3.05703 13.3428C2.80698 13.0927 2.6665 12.7536 2.6665 12.4V4.39998C2.6665 4.04636 2.80698 3.70722 3.05703 3.45717C3.30708 3.20713 3.64622 3.06665 3.99984 3.06665H7.99984" stroke="currentColor" stroke-width="1.33333" stroke-linecap="round" stroke-linejoin="round"/>
<path d="M12.3332 5.73324C13.2536 5.73324 13.9998 4.98704 13.9998 4.06657C13.9998 3.14609 13.2536 2.3999 12.3332 2.3999C11.4127 2.3999 10.6665 3.14609 10.6665 4.06657C10.6665 4.98704 11.4127 5.73324 12.3332 5.73324Z" stroke="currentColor" stroke-width="1.33333" stroke-linecap="round" stroke-linejoin="round"/>
</svg>
