<svg width="18" height="18" viewBox="0 0 18 18" fill="none" xmlns="http://www.w3.org/2000/svg">
<path fill-rule="evenodd" clip-rule="evenodd" d="M9.62198 2.99999C9.3131 2.1261 8.47967 1.5 7.50001 1.5C6.52035 1.5 5.68692 2.1261 5.37804 2.99999H0.774775C0.666666 2.99999 0.564565 3.01723 0.468468 3.05172C0.372372 3.0862 0.288289 3.13792 0.216216 3.20689C0.144144 3.27585 0.0900903 3.35631 0.0540541 3.44827C0.0180178 3.54022 0 3.63792 0 3.74137C0 3.85631 0.0180178 3.95689 0.0540541 4.0431C0.0900903 4.1293 0.144144 4.21264 0.216216 4.2931C0.288289 4.36206 0.372372 4.41378 0.468468 4.44827C0.564565 4.48275 0.666666 4.49999 0.774775 4.49999H5.37803C5.68691 5.37389 6.52034 6 7.50001 6C8.47968 6 9.31311 5.37389 9.62198 4.49999H17.2252C17.3333 4.49999 17.4354 4.48275 17.5315 4.44827C17.6276 4.41378 17.7117 4.36206 17.7838 4.2931C17.8559 4.21264 17.9099 4.1293 17.9459 4.0431C17.982 3.95689 18 3.85631 18 3.74137C18 3.63792 17.982 3.54022 17.9459 3.44827C17.9099 3.35631 17.8559 3.27585 17.7838 3.20689C17.7117 3.13792 17.6276 3.0862 17.5315 3.05172C17.4354 3.01723 17.3333 2.99999 17.2252 2.99999H9.62198ZM6.00002 3.75001C6.00002 2.92158 6.67159 2.25001 7.50002 2.25001C8.32844 2.25001 9.00002 2.92158 9.00002 3.75001C9.00002 4.57844 8.32844 5.25001 7.50002 5.25001C6.67159 5.25001 6.00002 4.57844 6.00002 3.75001ZM8.50011 4.49999H6.49991C6.34299 4.29108 6.25001 4.0314 6.25001 3.75C6.25001 3.46859 6.343 3.20891 6.49992 2.99999H8.50009C8.65702 3.20891 8.75001 3.46859 8.75001 3.75C8.75001 4.0314 8.65702 4.29108 8.50011 4.49999ZM0.216216 9.5431C0.144144 9.46264 0.0900903 9.37931 0.0540541 9.2931C0.0180178 9.2069 0 9.10632 0 8.99138C0 8.88793 0.0180178 8.79023 0.0540541 8.69828C0.0900903 8.60632 0.144144 8.52586 0.216216 8.4569C0.288289 8.38793 0.372372 8.33621 0.468468 8.30172C0.564565 8.26724 0.666666 8.25 0.774775 8.25H11.378C11.3693 8.27463 11.361 8.29945 11.3532 8.32446C11.361 8.29945 11.3693 8.27463 11.378 8.25C11.6869 7.37611 12.5203 6.75001 13.5 6.75001C14.5105 6.75001 15.3654 7.41611 15.6495 8.33317C15.6409 8.30521 15.6317 8.27748 15.622 8.25H17.2252C17.3333 8.25 17.4354 8.26724 17.5315 8.30172C17.6276 8.33621 17.7117 8.38793 17.7838 8.4569C17.8559 8.52586 17.9099 8.60632 17.9459 8.69828C17.982 8.79023 18 8.88793 18 8.99138C18 9.10632 17.982 9.2069 17.9459 9.2931C17.9099 9.37931 17.8559 9.46264 17.7838 9.5431C17.7117 9.61207 17.6276 9.66379 17.5315 9.69828C17.4354 9.73276 17.3333 9.75 17.2252 9.75H15.622C15.3131 10.6239 14.4797 11.25 13.5 11.25C12.5203 11.25 11.6869 10.6239 11.378 9.75H0.774775C0.666666 9.75 0.564565 9.73276 0.468468 9.69828C0.372372 9.66379 0.288289 9.61207 0.216216 9.5431ZM12.4999 9.75C12.343 9.54108 12.25 9.28139 12.25 8.99998C12.25 8.71859 12.343 8.45891 12.4999 8.25H14.5001C14.657 8.45891 14.75 8.71859 14.75 8.99998C14.75 9.28139 14.657 9.54108 14.5001 9.75H12.4999ZM0.0540541 14.5431C0.0900903 14.6293 0.144144 14.7126 0.216216 14.7931C0.288289 14.8621 0.372372 14.9138 0.468468 14.9483C0.564565 14.9827 0.666666 15 0.774775 15H2.37803C2.6869 15.8739 3.52033 16.5 4.5 16.5C5.47967 16.5 6.3131 15.8739 6.62197 15H17.2252C17.3333 15 17.4354 14.9827 17.5315 14.9483C17.6276 14.9138 17.7117 14.8621 17.7838 14.7931C17.8559 14.7126 17.9099 14.6293 17.9459 14.5431C17.982 14.4569 18 14.3563 18 14.2414C18 14.1379 17.982 14.0402 17.9459 13.9483C17.9099 13.8563 17.8559 13.7758 17.7838 13.7069C17.7117 13.6379 17.6276 13.5862 17.5315 13.5517C17.4354 13.5172 17.3333 13.5 17.2252 13.5H6.62197C6.31309 12.6261 5.47966 12 4.5 12C3.52034 12 2.68691 12.6261 2.37803 13.5H0.774775C0.666666 13.5 0.564565 13.5172 0.468468 13.5517C0.372372 13.5862 0.288289 13.6379 0.216216 13.7069C0.144144 13.7758 0.0900903 13.8563 0.0540541 13.9483C0.0180178 14.0402 0 14.1379 0 14.2414C0 14.3563 0.0180178 14.4569 0.0540541 14.5431ZM3.25 14.25C3.25 14.5314 3.34298 14.7911 3.4999 15H5.5001C5.65702 14.7911 5.75 14.5314 5.75 14.25C5.75 13.9686 5.65701 13.7089 5.50009 13.5H3.49991C3.34299 13.7089 3.25 13.9686 3.25 14.25ZM13.5 7.50002C12.6716 7.50002 12 8.17159 12 9.00002C12 9.82844 12.6716 10.5 13.5 10.5C14.3284 10.5 15 9.82844 15 9.00002C15 8.17159 14.3284 7.50002 13.5 7.50002ZM3.00001 14.25C3.00001 13.4216 3.67158 12.75 4.50001 12.75C5.32844 12.75 6.00001 13.4216 6.00001 14.25C6.00001 15.0784 5.32844 15.75 4.50001 15.75C3.67158 15.75 3.00001 15.0784 3.00001 14.25Z" fill="currentColor"/>
</svg>
