<svg width="20" height="20" viewBox="0 0 20 20" fill="none" xmlns="http://www.w3.org/2000/svg">
<path fill-rule="evenodd" clip-rule="evenodd" d="M10 20C4.5 20 0 15.5 0 10C0 4.5 4.5 0 10 0C15.5 0 20 4.5 20 10C20 15.5 15.5 20 10 20ZM10 1.25C5.1875 1.25 1.25 5.1875 1.25 10C1.25 14.8125 5.1875 18.75 10 18.75C14.8125 18.75 18.75 14.8125 18.75 10C18.75 5.1875 14.8125 1.25 10 1.25ZM5 10.9298L8.05195 14.1667L15 6.79752L14.0909 5.83333L8.05195 12.2383L5.90909 9.96556L5 10.9298Z" fill="currentColor"/>
</svg>
