<svg width="14" height="14" viewBox="0 0 14 14" fill="none" xmlns="http://www.w3.org/2000/svg">
<path fill-rule="evenodd" clip-rule="evenodd" d="M11.3683 4.94035C10.0612 3.00525 8.07332 2.34463 7.9563 2.30225C8.06421 2.36071 9.79831 3.48611 10.4685 5.36859C11.1388 7.25107 10.4883 9.15255 10.3971 9.37033C10.2527 9.88626 10.429 10.4753 10.9321 10.731C11.4063 10.9766 12.1175 10.6316 12.3333 9.88626C12.496 9.5691 12.6753 6.87399 11.3683 4.94035Z" fill="currentColor"/>
<path fill-rule="evenodd" clip-rule="evenodd" d="M2.75255 5.58318C1.66132 7.63813 2.05799 9.62438 2.07775 9.74277C2.07775 9.62438 2.22517 7.61767 3.58692 6.11957C4.94867 4.62148 6.98825 4.2137 7.22838 4.18155C7.76639 4.04416 8.20865 3.60277 8.1889 3.05615C8.1737 2.5373 7.5065 2.11783 6.72836 2.31076C6.36209 2.33414 3.84377 3.52823 2.75255 5.58318Z" fill="currentColor"/>
<path fill-rule="evenodd" clip-rule="evenodd" d="M7.64458 12.4393C10.0413 12.3195 11.6326 10.9968 11.7283 10.9208C11.6204 10.9807 9.7404 11.8606 7.70993 11.4762C5.68099 11.0903 4.29341 9.59808 4.14447 9.41246C3.75236 9.03392 3.13227 8.8863 2.6505 9.17569C2.19151 9.44754 2.14744 10.2134 2.70977 10.7644C2.91342 11.0582 5.24937 12.5592 7.64458 12.4393Z" fill="currentColor"/>
<path fill-rule="evenodd" clip-rule="evenodd" d="M11.6677 10.3538C11.6677 10.3538 11.6654 10.3538 11.6631 10.3599C11.6654 10.3538 11.6677 10.3538 11.6677 10.3538Z" fill="currentColor"/>
</svg>
